<svg width="138" height="48" fill="none" xmlns="http://www.w3.org/2000/svg"><path d="M69 .75v16.5M72.75 3.75h-5.625a2.625 2.625 0 0 0 0 5.25h3.75a2.625 2.625 0 0 1 0 5.25H64.5" stroke="#009FFD" stroke-linecap="round" stroke-linejoin="round"/><circle cx="129" cy="9" r="9" fill="#2EB670"/><path d="m133.5 6.375-6.188 6.188L124.5 9.75" stroke="#fff" stroke-linecap="round" stroke-linejoin="round"/><path d="M105 6.75h-6.75a1.5 1.5 0 0 0-1.5 1.5V15a1.5 1.5 0 0 0 1.5 1.5H105a1.5 1.5 0 0 0 1.5-1.5V8.25a1.5 1.5 0 0 0-1.5-1.5Z" stroke="#6C6D6F" stroke-linecap="round" stroke-linejoin="round"/><path d="M93.75 11.25H93a1.5 1.5 0 0 1-1.5-1.5V3A1.5 1.5 0 0 1 93 1.5h6.75a1.502 1.502 0 0 1 1.5 1.5v.75" stroke="#6C6D6F" stroke-linecap="round" stroke-linejoin="round"/><path d="M99 46.5a7.5 7.5 0 1 0 0-15 7.5 7.5 0 0 0 0 15ZM101.25 36.75l-4.5 4.5M96.75 36.75l4.5 4.5M74.25 33h-10.5a1.5 1.5 0 0 0-1.5 1.5V45a1.5 1.5 0 0 0 1.5 1.5h10.5a1.5 1.5 0 0 0 1.5-1.5V34.5a1.5 1.5 0 0 0-1.5-1.5ZM72 31.5v3M66 31.5v3M62.25 37.5h13.5" stroke="#2F2F30" stroke-linecap="round" stroke-linejoin="round"/><path d="m35 7 4 4 4-4" stroke="#2F2F30" stroke-linecap="round"/><path d="M43.32 33.96v-1.203c0-1.2-.259-1.545-1.747-1.153-1.093.288-7.488 2.061-7.488 2.061-1.97.743-2.27 1.374-2.27 2.814l-.015.884" stroke="#2F2F30" stroke-miterlimit="10" stroke-linejoin="round"/><path d="M42.501 41.5a1 1 0 1 1-.002-2 1 1 0 0 1 .002 2Z" stroke="#2F2F30"/><rect x="31.8" y="35.05" width="14.4" height="11.15" rx="1.5" stroke="#2F2F30"/><path d="m12.75 30.75 3 3-3 3" stroke="#2F2F30" stroke-linecap="round" stroke-linejoin="round"/><path d="M2.25 38.25v-1.5a3 3 0 0 1 3-3h10.5M5.25 47.25l-3-3 3-3" stroke="#2F2F30" stroke-linecap="round" stroke-linejoin="round"/><path d="M15.75 39.75v1.5a3 3 0 0 1-3 3H2.25" stroke="#2F2F30" stroke-linecap="round" stroke-linejoin="round"/><path d="M8.25 14.25a6 6 0 1 0 0-12 6 6 0 0 0 0 12ZM15.75 15.75l-3.263-3.263" stroke="#6C6D6F" stroke-linecap="round" stroke-linejoin="round"/></svg>